{"title":"51.2011.HDTVRip.XviD.Feel-Free","uid":6503118,"size":1159704778,"categoryP":"video","categoryS":"movies","magnet":"?xt=urn:btih:06b90b68153b1c04b6dfcc7fa436d127fc72a7ce&amp;dn=51.2011.HDTVRip.XviD.Feel-Free&amp;tr=udp%3A%2F%2Ftracker.openbittorrent.com%3A80&amp;tr=udp%3A%2F%2Fopen.demonii.com%3A1337&amp;tr=udp%3A%2F%2Ftracker.coppersurfer.tk%3A6969&amp;tr=udp%3A%2F%2Fexodus.desync.com%3A6969","seeders":0,"leechers":1,"uploader":"hiest","files":-1,"time":1309327606,"description":" Full Credits To Feel Free :)\n\n ######## ######## ######## ##          ######## ########  ######## ######## \n ##       ##       ##       ##          ##       ##     ## ##       ##       \n ##       ##       ##       ##          ##       ##     ## ##       ##       \n ######   ######   ######   ##          ######   ########  ######   ######   \n ##       ##       ##       ##          ##       ##   ##   ##       ##       \n ##       ##       ##       ##          ##       ##    ##  ##       ##       \n ##       ######## ######## ########    ##       ##     ## ######## ########\n\n\n Genre:Horror | Sci-Fi\n Language:English\n IMDb:http://www.imdb.com/title/tt1629439/\n Source:720p.HDTV.x264.GSN Thanks!\n\n Format : AVI\n Format/Info : Audio Video Interleave\n File size : 1.08 GiB\n Duration : 1h 26mn\n Overall bit rate : 1 793 Kbps\n\n Video\n ID : 0\n Format : MPEG-4 Visual\n Format profile : Advanced Simple@L5\n Format settings, BVOP : Yes\n Format settings, QPel : No\n Format settings, GMC : No warppoints\n Format settings, Matrix : Default (H.263)\n Codec ID : XVID\n Codec ID/Hint : XviD\n Duration : 1h 26mn\n Bit rate : 1 336 Kbps\n Width : 640 pixels\n Height : 360 pixels\n Display aspect ratio : 16:9\n Frame rate : 23.976 fps\n Color space : YUV\n Chroma subsampling : 4:2:0\n Bit depth : 8 bits\n Scan type : Progressive\n Bits/(Pixel*Frame) : 0.242\n Stream size : 823 MiB (74%)\n Writing library : XviD 1.2.1 (UTC 2008-12-04)\n\n Audio\n ID : 1\n Format : AC-3\n Format/Info : Audio Coding 3\n Mode extension : CM (complete main)\n Codec ID : 2000\n Duration : 1h 26mn\n Bit rate mode : Constant\n Bit rate : 448 Kbps\n Channel(s) : 6 channels\n Channel positions : Front: L C R, Side: L R, LFE\n Sampling rate : 48.0 KHz\n Bit depth : 16 bits\n Stream size : 276 MiB (25%)\n Alignment : Aligned on interleaves\n Interleave, duration : 42 ms (1.00 video frame)\n Interleave, preload duration : 512 ms\n\n\n Plot:\n 51 chronicles what happens after political pressure from the American public \n forces the Air Force to..\n\n\n Screen Shots:\n\n &lt;a href=&quot; http://leetleech.org/images/22621372168408138608.png&quot; rel=&quot;nofollow&quot; target=&quot;_NEW&quot;&gt; http://leetleech.org/images/22621372168408138608.png&lt;/a&gt;\n\n &lt;a href=&quot; http://leetleech.org/images/84961611260658031790.png&quot; rel=&quot;nofollow&quot; target=&quot;_NEW&quot;&gt; http://leetleech.org/images/84961611260658031790.png&lt;/a&gt;\n\n &lt;a href=&quot; http://leetleech.org/images/76085422557981504488.png&quot; rel=&quot;nofollow&quot; target=&quot;_NEW&quot;&gt; http://leetleech.org/images/76085422557981504488.png&lt;/a&gt;\n\n &lt;a href=&quot; http://leetleech.org/images/47608266671318510091.png&quot; rel=&quot;nofollow&quot; target=&quot;_NEW&quot;&gt; http://leetleech.org/images/47608266671318510091.png&lt;/a&gt;\n\n &lt;a href=&quot; http://leetleech.org/images/20074697046554371275.png&quot; rel=&quot;nofollow&quot; target=&quot;_NEW&quot;&gt; http://leetleech.org/images/20074697046554371275.png&lt;/a&gt;\n\n\n Full Credits To Feel Free :)\n\n ######## ######## ######## ##          ######## ########  ######## ######## \n ##       ##       ##       ##          ##       ##     ## ##       ##       \n ##       ##       ##       ##          ##       ##     ## ##       ##       \n ######   ######   ######   ##          ######   ########  ######   ######   \n ##       ##       ##       ##          ##       ##   ##   ##       ##       \n ##       ##       ##       ##          ##       ##    ##  ##       ##       \n ##       ######## ######## ########    ##       ##     ## ######## ########","torrent":{"xt":"urn:btih:06b90b68153b1c04b6dfcc7fa436d127fc72a7ce","amp;dn":"51.2011.HDTVRip.XviD.Feel-Free","amp;tr":["udp%3A%2F%2Ftracker.openbittorrent.com%3A80","udp%3A%2F%2Fopen.demonii.com%3A1337","udp%3A%2F%2Ftracker.coppersurfer.tk%3A6969","udp%3A%2F%2Fexodus.desync.com%3A6969"],"infoHash":"06b90b68153b1c04b6dfcc7fa436d127fc72a7ce","infoHashBuffer":{"type":"Buffer","data":[6,185,11,104,21,59,28,4,182,223,204,127,164,54,209,39,252,114,167,206]},"announce":[],"urlList":[]}}